<svg viewBox="3 3 18 18" stroke="#0F62C7" fill="rgba(0,0,0,0)" height="20" width="20"><path d="M9.5 17c-1.066-1.92-2-3.303-2-4.5 0-2.659 1.871-5 4.5-5s4.5 2.333 4.5 5c0 1.205-.926 2.58-2 4.5" stroke-miterlimit="10" stroke-linecap="round" stroke-linejoin="round"></path><path d="M14.63 17H9.37v1.645h5.26V17zM9.38 20.62h5.248M11 17v-4l.6.686a.515.515 0 00.8 0L13 13v4M12 5.627V3.4M8.518 7.113L6.98 5.578M15.11 7.24l1.564-1.55M4.38 9.153l1.833.863M19.63 9.153l-1.851.863" stroke-width="0.75" stroke-miterlimit="10" stroke-linecap="round" stroke-linejoin="round"></path></svg>