<svg viewBox="3 3 18 18" stroke="#1C1C1C" fill="rgba(0,0,0,0)" height="24" width="24"><path d="M20.5 19.5h-17v-12l8.5-3 8.5 3v12z" stroke-miterlimit="10" stroke-width="0.5" stroke-linecap="round" stroke-linejoin="round"></path><path d="M10.5 19v-4.5h3V19" stroke-miterlimit="10" stroke-width="0.5" stroke-linejoin="round"></path><path d="M7.83 11H6.17a.175.175 0 01-.17-.175v-1.65C6 9.08 6.078 9 6.17 9h1.66c.092 0 .17.08.17.175v1.657a.17.17 0 01-.17.168zM7.83 16H6.17a.175.175 0 01-.17-.175v-1.65c0-.095.078-.175.17-.175h1.66c.092 0 .17.08.17.175v1.65a.175.175 0 01-.17.175zM17.83 16h-1.66a.175.175 0 01-.17-.175v-1.65c0-.095.078-.175.17-.175h1.66c.092 0 .17.08.17.175v1.65a.175.175 0 01-.17.175zM12.83 11h-1.66a.175.175 0 01-.17-.175v-1.65c0-.095.078-.175.17-.175h1.66c.092 0 .17.08.17.175v1.657a.165.165 0 01-.17.168zM17.83 11h-1.66a.175.175 0 01-.17-.175v-1.65c0-.095.078-.175.17-.175h1.66c.092 0 .17.08.17.175v1.657a.17.17 0 01-.17.168z" stroke-width="0.5"></path></svg>