<svg class="jora-logo header-desktop" viewBox="0 0 188 32" xmlns="http://www.w3.org/2000/svg"><path class="text" d="M35.358 8.456c6.53 0 11.772 5.128 11.772 11.772S41.888 32 35.358 32 23.63 26.872 23.63 20.228 28.828 8.456 35.358 8.456zM54.754.162v11.55c1.599-2.052 3.954-3.256 7.196-3.256 5.953 0 10.84 5.128 10.84 11.772S67.902 32 61.95 32c-3.242 0-5.597-1.204-7.196-3.256v2.631h-5.73V.162h5.73zM85.873 0c4.896 0 8.795 2.372 10.861 6.539l-5.152 2.987c-1.111-2.364-2.861-3.551-5.709-3.551-2.351 0-4.33 1.299-4.33 2.88 0 1.917 1.199 2.722 5.907 4.15 4.931 1.56 10.173 3.21 10.173 9.586C97.623 28.432 92.96 32 86.34 32c-6.353 0-10.528-3.077-12.217-7.715l5.242-3.076c1.111 2.898 3.288 4.771 7.153 4.771 3.687 0 4.975-1.56 4.975-3.3 0-2.318-2.088-3.21-6.708-4.548-4.753-1.382-9.373-3.168-9.373-9.098C75.412 3.36 80.804 0 85.873 0zm52.977 8.456c6.575 0 11.239 5.217 11.239 11.772 0 .847-.09 1.605-.222 2.363H133.12c.8 2.943 3.243 4.192 6.264 4.192 2.222 0 3.998-.937 4.975-2.23l4.62 2.676c-2.088 3.032-5.42 4.77-9.684 4.77-7.463 0-12.172-5.127-12.172-11.771 0-6.645 4.754-11.772 11.728-11.772zm24.672 0c6.575 0 11.24 5.217 11.24 11.772 0 .847-.09 1.605-.222 2.363h-16.748c.8 2.943 3.243 4.192 6.264 4.192 2.22 0 3.998-.937 4.975-2.23l4.62 2.676c-2.088 3.032-5.42 4.77-9.685 4.77-7.463 0-12.171-5.127-12.171-11.771 0-6.645 4.753-11.772 11.727-11.772zM21.863.17v21.495c0 1.447-.221 2.746-.628 3.899a9.02 9.02 0 01-3.55 4.574c-.004.009-.01.014-.014.014-1.786 1.361-4.408 1.84-6.363 1.84-5.105 0-9.394-2.242-10.733-6.551C.168 24.13 0 22.486 0 20.035l6.207.007c-.038 2.552.291 4.465 2.206 5.557 1.732.988 5.49.932 6.794-1.878.764-1.65.57-4.389.57-6.214V.17h6.086zm83.681 1.244V9.08h5.02v5.53h-5.02v9.274c0 2.408 1.733 2.453 5.02 2.275v5.216c-8.041.892-10.75-1.47-10.75-7.491V1.414h5.73zm77.437 0V9.08H188v5.53h-5.02v9.274c0 2.408 1.733 2.453 5.02 2.275v5.216c-8.04.892-10.75-1.47-10.75-7.491V1.414h5.73zm-56.72 7.22v6.421c-2.975-.357-6.751.981-6.751 5.663v10.658h-5.73V9.08h5.73v3.835c1.155-3.032 3.953-4.28 6.752-4.28zm-65.377 5.307c-3.51 0-6.13 2.541-6.13 6.287s2.62 6.287 6.13 6.287c3.554 0 6.175-2.541 6.175-6.287s-2.62-6.287-6.175-6.287zm-25.526.133c-3.377 0-5.997 2.542-5.997 6.154s2.62 6.154 5.997 6.154c3.42 0 6.041-2.542 6.041-6.154s-2.62-6.154-6.04-6.154zm103.492-.445c-3.065 0-5.153 1.65-5.82 4.503h11.328c-.71-3.21-3.11-4.503-5.508-4.503zm24.672 0c-3.065 0-5.153 1.65-5.82 4.503h11.329c-.71-3.21-3.11-4.503-5.509-4.503z" fill="currentColor" fill-rule="nonzero"></path></svg>