<svg xmlns="http://www.w3.org/2000/svg" width="14" height="18" fill="none"><path stroke="#0E8136" stroke-linecap="round" stroke-linejoin="round" stroke-miterlimit="10" d="M2.5 8.096c0-2.52 2.018-4.56 4.5-4.56s4.5 2.04 4.5 4.56M7 3.5a1.5 1.5 0 1 0 0-3 1.5 1.5 0 0 0 0 3Z"/><path stroke="#0E8136" stroke-linecap="round" stroke-linejoin="round" stroke-miterlimit="10" d="M4 15.5H.5s2-4.463 2-7.5M11.5 8c0 3.037 2 7.5 2 7.5H10"/><path fill="#0E8136" stroke="#0E8136" stroke-miterlimit="10" d="M7 17.5a.9.9 0 1 0 0-1.8.9.9 0 0 0 0 1.8Z"/></svg>