<svg viewBox="0 0 189 177" fill="none" height="180" width="100%"><path d="m56.131 86.828 19.966-.74s2.3 23.318 3.204 38.329c.998 16.578 1.356 42.519 1.356 42.519h-7.395s-8.873-27.607-6.532-41.903c-4.19-15.528-10.599-38.205-10.599-38.205Z" fill="#FFFFFF"></path><path fill-rule="evenodd" clip-rule="evenodd" d="m76.587 86.04-.49.048.49-.048v.001l.026.265.075.766c.064.667.158 1.637.273 2.848.23 2.42.546 5.806.89 9.66.688 7.707 1.49 17.294 1.942 24.807.5 8.298.838 18.935 1.053 27.494a1615.423 1615.423 0 0 1 .299 14.752l.005.296-.494.007.493-.007a.493.493 0 0 1-.493.5h-7.394a.494.494 0 0 1-.47-.342l.47-.151-.47.15v-.001l-.006-.019-.02-.061-.074-.235c-.064-.207-.159-.512-.278-.905a201.692 201.692 0 0 1-3.777-14.413c-1.916-8.644-3.565-19.144-2.41-26.393a3163.671 3163.671 0 0 0-6.843-24.819 5320.098 5320.098 0 0 0-3.444-12.274l-.21-.746-.073-.258.474-.134-.474.134a.494.494 0 0 1 .456-.627l19.965-.74c.26-.01.484.186.509.445Zm-19.811 1.257.113.402.783 2.781c.667 2.369 1.599 5.69 2.662 9.495 2.126 7.61 4.776 17.163 6.872 24.93a.494.494 0 0 1 .01.208c-1.153 7.044.457 17.434 2.383 26.126a200.95 200.95 0 0 0 3.758 14.339c.112.37.203.661.266.865h6.533l-.01-.647a1600.238 1600.238 0 0 0-.286-13.891c-.214-8.556-.553-19.179-1.051-27.459-.451-7.497-1.252-17.074-1.94-24.779a1762.847 1762.847 0 0 0-1.162-12.5l-.056-.569-18.875.7Z" fill="#1C1C1C"></path><path d="m41.095 87.321 19.72-.74s-3.809 23.932-11.832 38.699l-29.948 34.754-6.286-4.436s15.652-27.73 23.663-33.892l4.683-34.385Z" fill="#FFFFFF"></path><path fill-rule="evenodd" clip-rule="evenodd" d="m61.301 86.659-.486-.078.486.078v.001l-.003.017-.008.053-.034.205a158.447 158.447 0 0 1-.678 3.71 196.412 196.412 0 0 1-2.192 9.868c-1.958 7.839-4.928 17.563-8.97 25.002a.51.51 0 0 1-.06.087L19.41 160.356a.494.494 0 0 1-.658.081L12.466 156a.493.493 0 0 1-.146-.645l.43.243-.43-.243.046-.08.133-.235.512-.892a355.561 355.561 0 0 1 8.15-13.451c2.46-3.856 5.176-7.912 7.78-11.391 2.528-3.379 4.98-6.253 7.01-7.865l4.656-34.187a.493.493 0 0 1 .47-.426l19.72-.74a.494.494 0 0 1 .505.57ZM13.4 155.453l5.555 3.92 29.621-34.375c3.969-7.321 6.906-16.922 8.854-24.724.975-3.905 1.7-7.349 2.181-9.817a159.277 159.277 0 0 0 .619-3.36l-18.7.701-4.628 33.974a.49.49 0 0 1-.188.324c-1.944 1.496-4.39 4.336-6.983 7.8-2.583 3.453-5.283 7.485-7.737 11.332a354.033 354.033 0 0 0-8.594 14.225Z" fill="#1C1C1C"></path><path fill-rule="evenodd" clip-rule="evenodd" d="M44.6 89.173a.37.37 0 0 1 .312.42l-5.201 35.172-.147.091c-1.215.744-3.82 3.116-7.59 7.822-3.759 4.693-8.658 11.681-14.468 21.627a.37.37 0 0 1-.639-.373c5.825-9.97 10.744-16.99 14.53-21.717 3.643-4.546 6.256-6.995 7.633-7.896l5.15-34.834a.37.37 0 0 1 .42-.312Z" fill="#FB3"></path><path d="M23.43 170.731c-5.776-6.518-6.04-11.862-6.04-11.862l-3.555-2.164s-3.85 3.656-5.591 6.96c5.529 3.367 7.656 5.207 14.096 8.856 1.35.005 1.76-1.034 1.09-1.79Z" fill="#1C1C1C"></path><path fill-rule="evenodd" clip-rule="evenodd" d="m17.869 158.584-4.1-2.496-.273.26.339.357-.34-.357-.003.003-.009.009-.034.032-.128.125a44.862 44.862 0 0 0-1.997 2.101c-1.188 1.336-2.618 3.111-3.517 4.817a.493.493 0 0 0 .18.651c2.256 1.374 3.941 2.491 5.594 3.586l1.098.727a119.226 119.226 0 0 0 7.418 4.551l.112.064h.13c.795.003 1.44-.307 1.74-.872.301-.569.164-1.237-.28-1.738-2.845-3.211-4.324-6.122-5.092-8.218a15.92 15.92 0 0 1-.702-2.472 9.323 9.323 0 0 1-.12-.823l-.003-.038V158.844l-.013-.26Zm-.947.578v.007c.02.17.055.416.115.73.12.627.34 1.525.744 2.627.808 2.205 2.35 5.224 5.28 8.532.227.255.22.484.146.622-.07.132-.275.319-.743.345a118.85 118.85 0 0 1-7.243-4.449l-1.091-.723c-1.555-1.03-3.153-2.09-5.227-3.363.847-1.477 2.083-3.008 3.158-4.216a43.188 43.188 0 0 1 1.844-1.949l3.017 1.837Z" fill="#1C1C1C"></path><path d="M90.057 173.925c-8.323-2.563-11.328-6.989-11.328-6.989h-4.162s-1.387 5.125-1.156 8.852c6.474 0 9.248.466 16.646.233 1.156-.699.966-1.799 0-2.096Z" fill="#1C1C1C"></path><path fill-rule="evenodd" clip-rule="evenodd" d="M78.99 166.443h-4.8l-.099.364.476.129-.476-.129-.001.005-.003.011-.012.046-.045.173a45.23 45.23 0 0 0-.613 2.834c-.32 1.758-.617 4.018-.498 5.943.016.26.232.462.492.462 2.641 0 4.662.078 6.643.154l1.316.05c2.434.087 4.99.146 8.703.029l.129-.004.11-.067c.68-.411 1.07-1.012 1.033-1.65-.039-.643-.503-1.143-1.143-1.34-4.1-1.262-6.877-2.979-8.623-4.37a15.937 15.937 0 0 1-1.885-1.746 9.695 9.695 0 0 1-.531-.641l-.022-.031-.005-.006v-.001l-.146-.215Zm-.51.986a16.84 16.84 0 0 0 2.484 2.426c1.838 1.463 4.725 3.24 8.948 4.541.326.1.44.299.449.455.008.149-.07.416-.455.682-3.612.11-6.11.052-8.501-.034-.437-.015-.871-.032-1.308-.049a166.24 166.24 0 0 0-6.214-.154c-.044-1.702.215-3.653.504-5.244a44.45 44.45 0 0 1 .563-2.623h3.53Z" fill="#1C1C1C"></path><path d="M29.17 52.712c4.437 9.071 15.652 7.724 20.705 5.916C61.213 68.364 74.401 41.62 65.774 32.87c-7.12-7.222-16.515-1.725-21.198 3.328-4.684 5.053-20.951 5.176-15.406 16.514Z" fill="#1C1C1C"></path><path fill-rule="evenodd" clip-rule="evenodd" d="M54.295 30.05c-3.796 1.095-7.297 3.716-9.629 6.232-1.19 1.284-3.108 2.248-5.204 3.147-.628.27-1.273.533-1.92.798-1.523.623-3.062 1.253-4.447 1.98-1.974 1.037-3.604 2.258-4.405 3.906-.797 1.64-.785 3.733.591 6.545 2.196 4.49 6.067 6.403 10.029 6.97 3.965.567 8.011-.217 10.524-1.116l.067-.024.055.047c1.401 1.203 2.826 1.839 4.227 2.018 1.402.18 2.79-.094 4.12-.723 2.665-1.26 5.09-3.94 6.9-7.208 1.81-3.267 2.999-7.108 3.198-10.673.199-3.567-.592-6.839-2.715-8.992-3.523-3.573-7.602-4-11.39-2.907Zm-.068-.237c3.859-1.113 8.037-.678 11.635 2.97 2.19 2.223 2.986 5.576 2.785 9.18-.202 3.606-1.402 7.483-3.228 10.778-1.824 3.294-4.282 6.022-7.01 7.312-1.366.646-2.801.932-4.257.745-1.438-.185-2.887-.83-4.302-2.03-2.545.899-6.596 1.673-10.575 1.104-4.02-.575-7.974-2.524-10.215-7.105-1.397-2.857-1.431-5.032-.591-6.761.836-1.722 2.525-2.974 4.511-4.017 1.396-.733 2.954-1.37 4.481-1.996.645-.263 1.284-.525 1.904-.79 2.098-.9 3.97-1.847 5.12-3.089 2.352-2.537 5.89-5.19 9.742-6.301Z" fill="#1C1C1C"></path><path d="m35.495 106.615-1.794-5.491 5.898-1.849c1.06.482 2.43 3.661 2.757 4.066.327.404-.482 1.059-.81.655-.262-.324-1.277-1.511-1.56-1.64.093.247.263 1.305.308 1.581.115.309.347.925.674 1.33.327.405.54.501 1.079 1.003.54.501-.155 1.464-.906.867-.461-.367-1.766-1.742-2.273-2.313.077.205.296.697.558 1.021l.983 1.214c.654.81.269 1.658-.81.655-.305-.283-1.342-1.548-1.85-2.12.187.34.396.819.56 1.021.29.36.866.906 1.194 1.311.327.405-.155 1.465-1.022.559-.129-.135-.963-.694-2.061-2.217.038.103.204.451.558 1.021.443.713.564.862.77 1.117l.001.001c.327.405-.27 1.156-.81.655-.431-.401-.866-.906-1.444-2.447Z" fill="#FFFFFF"></path><path fill-rule="evenodd" clip-rule="evenodd" d="M33.263 100.898a.497.497 0 0 1 .29-.245l5.899-1.848a.493.493 0 0 1 .351.021c.385.176.732.553 1.02.933.302.397.595.874.857 1.334.238.417.457.833.637 1.174l.055.106c.096.182.178.335.245.456.033.06.062.108.084.145l.028.043.01.014c.202.249.22.544.145.787a1.15 1.15 0 0 1-.377.537 1.147 1.147 0 0 1-.605.257.834.834 0 0 1-.739-.306c-.072-.089-.206-.25-.368-.437.124.327.315.79.556 1.088.138.171.25.275.396.4l.111.093c.137.114.308.257.524.458.503.467.406 1.143.067 1.531a1.1 1.1 0 0 1-1.229.305.907.907 0 0 1-.18.629c-.237.297-.599.333-.898.251a1.7 1.7 0 0 1-.094-.03c-.047.157-.128.31-.247.438a.925.925 0 0 1-.814.293c-.251-.033-.485-.159-.7-.346a1.124 1.124 0 0 1-.27.444 1 1 0 0 1-.653.298 1.037 1.037 0 0 1-.76-.298c-.499-.463-.972-1.038-1.57-2.636a.287.287 0 0 1-.008-.02l-1.794-5.49a.493.493 0 0 1 .03-.379Zm4.081 7.793c-.21-.259-.347-.437-.785-1.142-.36-.579-.545-.96-.601-1.108a.494.494 0 0 1 .862-.462c.848 1.177 1.484 1.71 1.817 1.988.09.075.157.131.2.177.128.134.214.18.255.196a.2.2 0 0 0 .018-.115c-.148-.181-.355-.4-.576-.631l-.028-.03c-.207-.217-.427-.448-.581-.639a3.335 3.335 0 0 1-.327-.544l-.104-.206c-.061-.124-.119-.238-.177-.345a.493.493 0 0 1 .801-.563c.19.214.453.524.721.839l.286.336c.371.436.683.794.81.911.071.066.136.121.195.165a1.367 1.367 0 0 0-.105-.149l-.982-1.214c-.312-.385-.553-.935-.637-1.159a.493.493 0 0 1 .83-.5c.247.279.695.76 1.14 1.218.452.466.87.877 1.071 1.036.106.084.168.084.185.082a.113.113 0 0 0 .075-.042.15.15 0 0 0 .038-.093c0-.017-.003-.037-.034-.066a11.043 11.043 0 0 0-.475-.416l-.128-.107a3.735 3.735 0 0 1-.523-.531c-.38-.468-.633-1.144-.746-1.447l-.007-.02a.486.486 0 0 1-.025-.094l-.005-.028c-.024-.152-.074-.46-.13-.764-.029-.163-.059-.321-.087-.452a4.61 4.61 0 0 0-.053-.22l-.003-.01-.002-.006-.002-.005v-.002a.493.493 0 0 1 .665-.621c.098.044.185.111.246.161.07.057.144.126.219.198.15.145.32.324.483.504.284.311.566.641.726.834.007-.005.015-.01.022-.017a.19.19 0 0 0 .025-.022 3.432 3.432 0 0 1-.154-.256 21.786 21.786 0 0 1-.313-.583c-.18-.343-.391-.744-.62-1.146a11.62 11.62 0 0 0-.786-1.226c-.2-.262-.37-.44-.504-.543l-5.21 1.633 1.636 5.006c.555 1.478.951 1.912 1.315 2.25a.172.172 0 0 0 .04.03l.006-.005a.14.14 0 0 0 .02-.028l.003-.007Z" fill="#1C1C1C"></path><path d="m40.11 87.444 36.603-1.479-2.958-20.705c4.663-2.095 15.553-4.609 20.089-9.243 4.535-4.634 4.354-18.856 3.697-25.388-1.356.082-4.51-.024-6.285-1.109-.904 5.381-3.18 16.44-5.053 17.624-1.874 1.183-10.476 2.547-14.543 3.08l-12.694.617-15.529 2.342c-5.628 4.026-17.032 14.271-17.624 23.046-.591 8.775 5.012 20.335 7.888 25.018 1.807.288 5.62.321 6.409-1.848-1.48-5.464-4.117-17.303-2.835-20.951 1.282-3.648 4.293-7.025 5.423-8.258L40.11 87.444Z" fill="#FB3"></path><path fill-rule="evenodd" clip-rule="evenodd" d="M91.051 29.071a.494.494 0 0 1 .462.028c.798.488 1.948.775 3.106.924a16.44 16.44 0 0 0 2.892.114.493.493 0 0 1 .52.443c.332 3.29.543 8.51.1 13.498-.222 2.495-.608 4.945-1.23 7.074-.62 2.12-1.489 3.968-2.705 5.21-2.351 2.403-6.303 4.22-10.174 5.69-1.667.632-3.337 1.207-4.879 1.736l-.759.262c-1.584.546-2.989 1.042-4.088 1.511l2.905 20.334a.493.493 0 0 1-.468.563L40.13 87.936a.493.493 0 0 1-.508-.565l2.34-15.603c-1.366 1.616-3.28 4.163-4.222 6.843-.285.813-.368 2.153-.278 3.855.089 1.682.341 3.655.682 5.695.68 4.079 1.706 8.388 2.442 11.109a.495.495 0 0 1-.013.297c-.49 1.348-1.883 1.929-3.199 2.163-1.346.239-2.81.154-3.75.004a.492.492 0 0 1-.343-.229c-1.453-2.367-3.588-6.457-5.286-11.062-1.695-4.596-2.976-9.757-2.673-14.247.307-4.559 3.403-9.42 7.043-13.595 3.658-4.195 7.946-7.788 10.786-9.82a.495.495 0 0 1 .213-.086l15.529-2.342a.586.586 0 0 1 .05-.005l12.673-.615a148.73 148.73 0 0 0 8.045-1.29c1.441-.276 2.807-.572 3.924-.87 1.139-.304 1.958-.596 2.355-.846.127-.08.318-.293.553-.704.225-.396.461-.92.702-1.551.481-1.262.964-2.903 1.42-4.688.912-3.568 1.704-7.664 2.155-10.346a.494.494 0 0 1 .281-.367Zm.577 1.197c-.466 2.682-1.21 6.442-2.057 9.76-.46 1.8-.954 3.482-1.455 4.795-.25.656-.506 1.232-.767 1.689-.252.441-.542.833-.883 1.048-.54.341-1.498.664-2.626.965-1.15.307-2.54.608-3.993.887a150.031 150.031 0 0 1-8.123 1.301l-.024.003a.28.28 0 0 1-.016.001l-12.669.615-15.386 2.32c-2.79 2.007-6.962 5.516-10.52 9.597-3.616 4.147-6.519 8.797-6.803 13.013-.289 4.285.936 9.291 2.614 13.84 1.628 4.414 3.663 8.348 5.082 10.691.864.116 2.09.163 3.2-.034 1.17-.208 2.043-.653 2.389-1.393-.74-2.75-1.746-7.004-2.42-11.043-.343-2.059-.602-4.072-.694-5.805-.09-1.715-.021-3.224.333-4.234 1.32-3.754 4.398-7.198 5.525-8.427a.493.493 0 0 1 .85.406l-2.499 16.664 35.462-1.432-2.88-20.165a.493.493 0 0 1 .285-.52c1.19-.534 2.766-1.091 4.51-1.692l.762-.263c1.542-.53 3.196-1.098 4.848-1.725 3.874-1.47 7.635-3.227 9.819-5.458 1.052-1.075 1.862-2.743 2.462-4.797.599-2.045.977-4.427 1.195-6.884.416-4.686.246-9.594-.054-12.851a17.959 17.959 0 0 1-2.602-.14c-.96-.123-1.991-.344-2.865-.732Z" fill="#1C1C1C"></path><path fill-rule="evenodd" clip-rule="evenodd" d="M72.665 60.219a.493.493 0 0 1 .586.377l.986 4.56a.493.493 0 0 1-.964.209l-.986-4.56a.493.493 0 0 1 .378-.586ZM46.633 66.527c.185.2.174.512-.026.697l-3.45 3.204a.493.493 0 0 1-.671-.722l3.45-3.205a.493.493 0 0 1 .697.026ZM64.479 50.994c-.682 1.5-2.416 3.163-6.34 3.543-1.717.166-3.214-.121-4.372-.583-1.145-.456-1.995-1.097-2.38-1.675l.615-.41c.272.407.971.974 2.038 1.398 1.055.42 2.434.688 4.028.534 3.716-.36 5.187-1.901 5.737-3.113l.674.306ZM92.975 30.2a.37.37 0 0 1 .302.427l-.86 4.94a.37.37 0 0 1-.728-.126l.859-4.94a.37.37 0 0 1 .427-.302ZM94.457 30.429a.37.37 0 0 1 .321.412l-.648 5.182a.37.37 0 0 1-.733-.091l.647-5.182a.37.37 0 0 1 .413-.321ZM95.938 30.645a.37.37 0 0 1 .354.385l-.215 5.176a.37.37 0 0 1-.74-.03l.216-5.177a.37.37 0 0 1 .385-.354Z" fill="#1C1C1C"></path><path d="M57.117 52.074a9.12 9.12 0 0 0 9.12-9.12c0-.944-.143-1.855-.41-2.712-2.2.592-10.701-.986-14.677-1.848l-1.18 3.204c-1.028-.123-3.464.342-3.328 3.204.123 2.588 2.481 2.588 2.723 2.958a9.113 9.113 0 0 0 7.752 4.314Z" fill="#FFFFFF"></path><path fill-rule="evenodd" clip-rule="evenodd" d="m50.836 37.82.418.091c1.98.43 5.089 1.038 7.972 1.464 1.442.214 2.821.38 3.971.457 1.173.078 2.04.058 2.502-.066l.458-.123.141.453a9.613 9.613 0 0 1-17.31 7.99l-.01-.006a4.054 4.054 0 0 0-.29-.11l-.01-.004a5.683 5.683 0 0 1-.967-.427 3.051 3.051 0 0 1-1.038-.965c-.296-.451-.49-1.023-.524-1.749-.076-1.601.58-2.604 1.455-3.16.672-.428 1.44-.574 2.028-.578l1.204-3.266Zm.629 1.145-1.168 3.169-.386-.047c-.426-.051-1.172.024-1.777.409-.566.36-1.06 1.021-1 2.283.027.568.175.967.363 1.255.19.29.44.496.71.653a4.8 4.8 0 0 0 .814.355l.013.005c.119.042.248.089.356.138.09.041.273.13.387.304l.004.006.003.005a8.627 8.627 0 0 0 15.692-6.69c-.62.078-1.438.066-2.344.006-1.188-.08-2.595-.25-4.05-.465a131.39 131.39 0 0 1-7.617-1.386ZM35.594 101.304a.369.369 0 0 1-.485-.194l-1.942-4.531a.37.37 0 1 1 .68-.291l1.941 4.531a.369.369 0 0 1-.194.485ZM37.31 101.034a.37.37 0 0 1-.47-.228l-1.703-4.888a.37.37 0 0 1 .698-.243l1.703 4.888a.37.37 0 0 1-.228.471ZM38.783 100.768a.37.37 0 0 1-.457-.254l-1.358-4.739a.37.37 0 1 1 .71-.203l1.359 4.738a.37.37 0 0 1-.254.458Z" fill="#1C1C1C"></path><path d="M92.029 29.967c-.04-.473-.27-1.638-.858-2.51-.588-.874-.572-4.221-.49-5.786.123-.255.441-.611.735 0 .368.764.368 3.493 1.226 3.711.122-1.928.294-6.178 0-7.75.081-.29.343-.72.735-.109.413.646.827 3.08.946 4.414-.086-1.559-.211-3.922-.211-4.304 0-.546.613-.764.858-.11.245.655.612 4.367.612 5.021v-5.02c0-.655.613-.546.736 0 .122.545.49 2.182.49 5.02.04-1.382.122-4.3.122-4.911 0-.764.613-.546.613-.11 0 .437.245 1.965.245 5.021 0 3.057-.49 7.314-.858 8.078-.94.036-3.235-.044-4.901-.655Z" fill="#FFFFFF"></path><path fill-rule="evenodd" clip-rule="evenodd" d="M96.075 18.915c.123.838.24 2.04.24 3.63a.493.493 0 0 0 .98.075c-.004 1.491-.124 3.266-.289 4.77a31.638 31.638 0 0 1-.273 1.992 9.544 9.544 0 0 1-.158.754c-.98.005-2.723-.1-4.097-.536-.098-.614-.357-1.615-.898-2.419-.084-.125-.18-.406-.26-.86a13.27 13.27 0 0 1-.153-1.523c-.04-.764-.041-1.57-.025-2.25l.015.081.075.45c.04.243.083.505.129.745.077.408.177.837.325 1.186.135.32.378.734.834.85a.494.494 0 0 0 .613-.446c.062-.97.136-2.523.157-4.033.015-1.007.007-2.02-.049-2.83.082.297.162.646.236 1.018.166.836.296 1.757.354 2.404l.034.6a.493.493 0 0 0 .985-.028c0-.172-.013-.394-.035-.643a404.734 404.734 0 0 1-.19-3.68c.018.103.037.218.056.345.068.441.136.98.197 1.522.123 1.097.211 2.16.211 2.456a.493.493 0 0 0 .986 0v-3.63Zm.528-1.938a.902.902 0 0 0-.66-.395.746.746 0 0 0-.725.394c-.212-.259-.52-.409-.877-.33a.897.897 0 0 0-.618.511 1.14 1.14 0 0 0-.392-.354.712.712 0 0 0-.673.003.926.926 0 0 0-.347.351 1.472 1.472 0 0 0-.144.343.49.49 0 0 0-.01.224c.136.73.17 2.135.148 3.643-.01.626-.027 1.26-.05 1.856l-.045-.275c-.027-.163-.053-.326-.082-.491-.064-.355-.141-.737-.268-1-.092-.19-.215-.372-.393-.49a.723.723 0 0 0-.641-.087.919.919 0 0 0-.393.275 1.388 1.388 0 0 0-.196.303.493.493 0 0 0-.048.188c-.042.794-.067 2.04-.006 3.203.03.58.081 1.151.166 1.64.081.467.203.931.413 1.243.524.777.739 1.85.776 2.277.016.19.141.355.32.42 1.757.645 4.129.723 5.091.686a.493.493 0 0 0 .425-.28c.126-.262.235-.739.33-1.282.1-.568.198-1.279.283-2.057.17-1.554.294-3.401.294-4.951 0-1.542-.062-2.7-.125-3.53-.027-.374-.055-.68-.077-.921a7.163 7.163 0 0 1-.043-.57c0-.425-.303-.847-.756-.887a.72.72 0 0 0-.677.34Z" fill="#1C1C1C"></path><path fill-rule="evenodd" clip-rule="evenodd" d="M93.65 25.879a.37.37 0 0 1 .507-.127c.186.111.397.357.593.716.204.372.41.9.564 1.619a.37.37 0 0 1-.723.155c-.141-.661-.325-1.12-.49-1.42a2.054 2.054 0 0 0-.219-.33.845.845 0 0 0-.076-.082c-.018-.016-.028-.023-.03-.024a.37.37 0 0 1-.126-.507Z" fill="#1C1C1C"></path><path d="m140.285 86.828-19.965-.74s-2.301 23.318-3.205 38.329c-.997 16.578-1.355 42.519-1.355 42.519h7.394s8.874-27.607 6.532-41.903c4.19-15.528 10.599-38.205 10.599-38.205Z" fill="#FFFFFF"></path><path fill-rule="evenodd" clip-rule="evenodd" d="m119.829 86.04.491.048-.491-.048v.001l-.026.265-.075.766a1726.91 1726.91 0 0 0-1.163 12.508c-.688 7.707-1.49 17.294-1.942 24.807-.499 8.298-.838 18.935-1.052 27.494a1548.77 1548.77 0 0 0-.287 13.9l-.013.852-.004.296.493.007-.493-.007a.49.49 0 0 0 .493.5h7.394a.495.495 0 0 0 .47-.342l-.47-.151.47.15v-.001l.006-.019.019-.061.075-.235c.064-.207.159-.512.279-.905a201.317 201.317 0 0 0 3.777-14.413c1.915-8.644 3.564-19.144 2.41-26.393 2.09-7.743 4.725-17.243 6.842-24.819 1.062-3.805 1.994-7.125 2.661-9.493l.783-2.78.21-.747.073-.258-.474-.134.474.134a.493.493 0 0 0-.456-.627l-19.965-.74a.493.493 0 0 0-.509.445Zm19.811 1.257-.113.402-.784 2.781c-.666 2.369-1.598 5.69-2.661 9.495-2.126 7.61-4.776 17.163-6.872 24.93a.486.486 0 0 0-.01.208c1.153 7.044-.457 17.434-2.383 26.126a201.077 201.077 0 0 1-3.758 14.339c-.112.37-.203.661-.266.865h-6.533l.01-.647a1601.239 1601.239 0 0 1 .286-13.891c.214-8.556.553-19.179 1.051-27.459.452-7.497 1.252-17.074 1.94-24.779a1727.656 1727.656 0 0 1 1.163-12.5l.055-.569 18.875.7Z" fill="#1C1C1C"></path><path d="m155.32 87.321-19.718-.74s3.808 23.932 11.831 38.699l29.948 34.754 6.285-4.436s-15.652-27.73-23.662-33.892l-4.684-34.385Z" fill="#FFFFFF"></path><path fill-rule="evenodd" clip-rule="evenodd" d="m135.115 86.659.487-.078-.487.078v.001l.003.017.008.053.034.205a163.196 163.196 0 0 0 .678 3.71c.484 2.482 1.212 5.943 2.192 9.868 1.958 7.839 4.928 17.563 8.97 25.002.017.031.037.06.06.087l29.948 34.754c.165.192.45.227.657.081l6.286-4.437a.493.493 0 0 0 .145-.645l-.429.243.429-.243-.046-.08-.133-.235a302.554 302.554 0 0 0-2.397-4.122 354.565 354.565 0 0 0-6.265-10.221c-2.461-3.856-5.175-7.912-7.78-11.391-2.528-3.379-4.979-6.253-7.01-7.865l-4.656-34.187a.492.492 0 0 0-.47-.426l-19.719-.74a.494.494 0 0 0-.505.57Zm47.902 68.794-5.554 3.92-29.622-34.375c-3.968-7.321-6.906-16.922-8.854-24.724-.975-3.905-1.7-7.349-2.181-9.817-.24-1.234-.42-2.223-.539-2.904l-.08-.456 18.701.701 4.627 33.974a.493.493 0 0 0 .188.324c1.945 1.496 4.391 4.336 6.983 7.8 2.584 3.453 5.284 7.485 7.738 11.332a353.34 353.34 0 0 1 8.593 14.225Z" fill="#1C1C1C"></path><path fill-rule="evenodd" clip-rule="evenodd" d="M151.816 89.173a.37.37 0 0 0-.312.42l5.201 35.172.148.091c1.215.744 3.819 3.116 7.589 7.822 3.759 4.693 8.659 11.681 14.469 21.627a.37.37 0 1 0 .638-.373c-5.825-9.97-10.744-16.99-14.53-21.717-3.642-4.546-6.256-6.995-7.632-7.896l-5.151-34.834a.37.37 0 0 0-.42-.312Z" fill="#0E8136"></path><path d="M172.986 170.731c5.776-6.518 6.04-11.862 6.04-11.862l3.555-2.164s3.85 3.656 5.591 6.96c-5.529 3.367-7.656 5.207-14.096 8.856-1.351.005-1.76-1.034-1.09-1.79Z" fill="#1C1C1C"></path><path fill-rule="evenodd" clip-rule="evenodd" d="m178.547 158.584 4.1-2.496.274.26-.34.357.34-.357.003.003.009.009.034.032.128.125a43.908 43.908 0 0 1 1.997 2.101c1.188 1.336 2.618 3.111 3.517 4.817a.494.494 0 0 1-.18.651c-2.256 1.374-3.941 2.491-5.594 3.586-.366.243-.729.484-1.098.727a118.877 118.877 0 0 1-7.418 4.551l-.112.064h-.129c-.795.003-1.441-.307-1.74-.872-.302-.569-.165-1.237.279-1.738 2.845-3.211 4.324-6.122 5.092-8.218.385-1.048.591-1.894.702-2.472a9.243 9.243 0 0 0 .123-.861V158.844l.013-.26Zm.948.578-.001.007c-.02.17-.055.416-.115.73-.119.627-.34 1.525-.744 2.627-.808 2.205-2.349 5.224-5.28 8.532-.226.255-.219.484-.146.622.07.132.275.319.743.345a118.764 118.764 0 0 0 7.243-4.449l1.091-.723c1.555-1.03 3.153-2.09 5.228-3.363-.848-1.477-2.084-3.008-3.158-4.216a44.325 44.325 0 0 0-1.845-1.949l-3.016 1.837Z" fill="#1C1C1C"></path><path d="M106.359 173.925c8.323-2.563 11.329-6.989 11.329-6.989h4.161s1.387 5.125 1.156 8.852c-6.473 0-9.248.466-16.646.233-1.156-.699-.965-1.799 0-2.096Z" fill="#1C1C1C"></path><path fill-rule="evenodd" clip-rule="evenodd" d="M117.426 166.443h4.8l.099.364-.476.129.476-.129.001.005.003.011.012.046.045.173a45.143 45.143 0 0 1 .613 2.834c.32 1.758.618 4.018.498 5.943a.492.492 0 0 1-.492.462c-2.641 0-4.662.078-6.643.154l-1.315.05c-2.435.087-4.99.146-8.704.029l-.129-.004-.11-.067c-.681-.411-1.071-1.012-1.033-1.65.039-.643.503-1.143 1.143-1.34 4.1-1.262 6.877-2.979 8.623-4.37a15.99 15.99 0 0 0 1.886-1.746c.197-.219.339-.392.431-.509l.099-.132.022-.031.005-.006v-.001l.146-.215Zm.509.986-.004.005a9.634 9.634 0 0 1-.478.564 16.799 16.799 0 0 1-2.001 1.857c-1.838 1.463-4.724 3.24-8.948 4.541-.326.1-.439.299-.448.455-.009.149.069.416.455.682 3.611.11 6.11.052 8.5-.034.437-.015.871-.032 1.308-.049 1.864-.072 3.78-.145 6.214-.154.045-1.702-.215-3.653-.504-5.244a43.898 43.898 0 0 0-.562-2.623h-3.532Z" fill="#1C1C1C"></path><path d="m160.922 106.615 1.793-5.491-5.898-1.849c-1.059.482-2.429 3.661-2.757 4.066-.327.404.482 1.059.81.655.262-.324 1.277-1.511 1.56-1.64-.093.247-.263 1.305-.308 1.581-.115.309-.346.925-.674 1.33-.327.405-.539.501-1.078 1.003-.54.501.154 1.464.906.867.46-.367 1.765-1.742 2.273-2.313-.077.205-.297.697-.559 1.021l-.982 1.214c-.655.81-.27 1.658.809.655.305-.283 1.342-1.548 1.85-2.12-.187.34-.395.819-.559 1.021-.29.36-.867.906-1.194 1.311-.328.405.154 1.465 1.021.559.129-.135.963-.694 2.061-2.217-.038.103-.204.451-.558 1.021-.443.713-.563.862-.77 1.117l-.001.001c-.327.405.271 1.156.81.655.431-.401.867-.906 1.445-2.447Z" fill="#FFFFFF"></path><path fill-rule="evenodd" clip-rule="evenodd" d="M163.154 100.898a.5.5 0 0 0-.291-.245l-5.898-1.848a.495.495 0 0 0-.352.021c-.385.176-.732.553-1.02.933-.302.397-.595.874-.857 1.334-.238.417-.456.833-.636 1.174l-.056.106a21.04 21.04 0 0 1-.245.456 3.214 3.214 0 0 1-.122.202.836.836 0 0 0-.145.787c.071.225.22.409.378.537.158.128.369.235.604.257a.834.834 0 0 0 .739-.306c.072-.089.207-.25.368-.437-.124.327-.315.79-.556 1.088a2.729 2.729 0 0 1-.396.4l-.111.093c-.136.114-.308.257-.524.458-.503.467-.406 1.143-.066 1.531a1.097 1.097 0 0 0 1.228.305.906.906 0 0 0 .181.629c.236.297.598.333.897.251.031-.009.063-.019.094-.03a1.1 1.1 0 0 0 .248.438c.19.206.476.338.813.293.251-.033.486-.159.701-.346.057.176.156.332.269.444a1 1 0 0 0 .654.298c.278.013.542-.095.76-.298.498-.463.972-1.038 1.57-2.636a.118.118 0 0 0 .007-.02l1.794-5.49a.495.495 0 0 0-.03-.379Zm-4.082 7.793c.21-.259.347-.437.785-1.142.359-.579.546-.96.601-1.108a.493.493 0 0 0-.861-.462c-.849 1.177-1.485 1.71-1.818 1.988-.089.075-.156.131-.2.177a.768.768 0 0 1-.255.196.216.216 0 0 1-.02-.072.121.121 0 0 1 .002-.043 11.977 11.977 0 0 1 .604-.661c.207-.217.427-.448.582-.639.119-.147.234-.365.326-.544l.104-.206c.062-.124.119-.238.177-.345a.492.492 0 0 0-.801-.563c-.19.214-.453.524-.721.839l-.286.336c-.371.436-.683.794-.809.911a2.576 2.576 0 0 1-.196.165c.029-.047.064-.097.105-.149l.982-1.214c.312-.385.554-.935.637-1.159a.492.492 0 0 0-.83-.5c-.247.279-.695.76-1.139 1.218-.452.466-.871.877-1.072 1.036-.106.084-.168.084-.185.082a.112.112 0 0 1-.074-.042.148.148 0 0 1-.039-.093c0-.017.003-.037.034-.066.196-.182.342-.304.475-.416l.128-.107a3.72 3.72 0 0 0 .524-.531c.378-.468.631-1.144.745-1.447l.007-.02a.42.42 0 0 0 .025-.094l.005-.028c.024-.152.074-.46.129-.764.03-.163.06-.321.088-.452a3.661 3.661 0 0 1 .053-.22l.003-.01a.02.02 0 0 0 .002-.006l.002-.005v-.001l.001-.001a.494.494 0 0 0-.666-.621 1.164 1.164 0 0 0-.246.161c-.07.057-.144.126-.219.198a11.5 11.5 0 0 0-.483.504c-.284.311-.566.641-.725.834a.124.124 0 0 1-.023-.017.17.17 0 0 1-.024-.022 3.61 3.61 0 0 0 .154-.256c.074-.133.161-.297.257-.478l.055-.105c.18-.343.391-.744.621-1.146.253-.445.522-.879.785-1.226.199-.262.37-.44.504-.543l5.21 1.633-1.636 5.006c-.555 1.478-.951 1.912-1.314 2.25a.18.18 0 0 1-.04.03l-.006-.005a.146.146 0 0 1-.021-.028l-.003-.007Z" fill="#1C1C1C"></path><path d="m156.307 87.444-36.604-1.479 2.958-20.705c-4.663-2.095-15.553-4.609-20.088-9.243-4.536-4.634-4.355-18.856-3.698-25.388 1.356.082 4.511-.024 6.286-1.109.903 5.381 3.179 16.44 5.053 17.624 1.873 1.183 10.475 2.547 14.542 3.08l12.694.617 15.529 2.342c5.628 4.026 17.032 14.271 17.624 23.046.591 8.775-5.012 20.335-7.888 25.018-1.807.288-5.62.321-6.408-1.848 1.479-5.464 4.116-17.303 2.834-20.951-1.282-3.648-4.293-7.025-5.422-8.258l2.588 17.254Z" fill="#0E8136"></path><path fill-rule="evenodd" clip-rule="evenodd" d="M105.365 29.071a.494.494 0 0 0-.462.028c-.798.488-1.948.775-3.105.924a16.444 16.444 0 0 1-2.893.114.493.493 0 0 0-.52.443c-.331 3.29-.542 8.51-.1 13.498.222 2.495.608 4.945 1.23 7.074.621 2.12 1.489 3.968 2.705 5.21 2.352 2.403 6.304 4.22 10.174 5.69 1.667.632 3.338 1.207 4.879 1.736l.759.262c1.584.546 2.989 1.042 4.088 1.511l-2.905 20.334a.493.493 0 0 0 .468.563l36.603 1.478a.493.493 0 0 0 .508-.565l-2.341-15.603c1.367 1.616 3.281 4.163 4.223 6.843.286.813.368 2.153.278 3.855-.088 1.682-.341 3.655-.681 5.695-.681 4.079-1.706 8.388-2.443 11.109a.496.496 0 0 0 .013.297c.49 1.348 1.883 1.929 3.199 2.163 1.347.239 2.81.154 3.75.004a.492.492 0 0 0 .343-.229c1.454-2.367 3.588-6.457 5.286-11.062 1.696-4.596 2.976-9.757 2.673-14.247-.307-4.559-3.402-9.42-7.043-13.595-3.658-4.195-7.946-7.788-10.786-9.82a.491.491 0 0 0-.213-.086l-15.528-2.342a.604.604 0 0 0-.05-.005l-12.674-.615a148.838 148.838 0 0 1-8.045-1.29c-1.441-.276-2.806-.572-3.924-.87-1.138-.304-1.958-.596-2.354-.846-.128-.08-.319-.293-.553-.704-.226-.396-.462-.92-.703-1.551-.481-1.262-.964-2.903-1.42-4.688-.912-3.568-1.704-7.664-2.154-10.346a.496.496 0 0 0-.282-.367Zm-.577 1.197c.467 2.682 1.21 6.442 2.058 9.76.46 1.8.953 3.482 1.454 4.795.25.656.507 1.232.767 1.689.252.441.542.833.883 1.048.54.341 1.498.664 2.627.965 1.149.307 2.54.608 3.992.887 2.905.557 6.083 1.034 8.123 1.301l.024.003.016.001 12.669.615 15.387 2.32c2.789 2.007 6.962 5.516 10.52 9.597 3.616 4.147 6.518 8.797 6.803 13.013.288 4.285-.937 9.291-2.615 13.84-1.627 4.414-3.663 8.348-5.081 10.691-.865.116-2.091.163-3.2-.034-1.17-.208-2.043-.653-2.389-1.393.739-2.75 1.745-7.004 2.419-11.043.344-2.059.603-4.071.694-5.805.091-1.715.022-3.224-.333-4.234-1.319-3.754-4.397-7.198-5.524-8.427a.493.493 0 0 0-.851.406l2.499 16.664-35.462-1.432 2.881-20.165a.492.492 0 0 0-.286-.52c-1.189-.534-2.766-1.091-4.509-1.692l-.763-.263a161.71 161.71 0 0 1-4.847-1.725c-3.875-1.47-7.635-3.227-9.819-5.458-1.052-1.074-1.862-2.743-2.463-4.797-.599-2.045-.976-4.427-1.195-6.884-.415-4.686-.245-9.594.054-12.851a17.96 17.96 0 0 0 2.603-.139c.959-.124 1.991-.345 2.864-.733Z" fill="#1C1C1C"></path><path fill-rule="evenodd" clip-rule="evenodd" d="M123.751 60.219a.493.493 0 0 0-.586.377l-.986 4.56a.494.494 0 0 0 .964.209l.986-4.56a.494.494 0 0 0-.378-.586ZM149.783 66.527a.493.493 0 0 0 .026.697l3.451 3.204a.492.492 0 1 0 .671-.722L150.48 66.5a.494.494 0 0 0-.697.026ZM131.938 50.994c.681 1.5 2.415 3.163 6.339 3.543 1.717.166 3.214-.121 4.372-.583 1.145-.456 1.995-1.097 2.38-1.675l-.615-.41c-.272.407-.971.974-2.039 1.398-1.054.42-2.433.688-4.026.534-3.717-.36-5.187-1.901-5.738-3.113l-.673.306ZM103.441 30.2a.37.37 0 0 0-.301.427l.859 4.94a.37.37 0 0 0 .729-.126l-.86-4.94a.37.37 0 0 0-.427-.302ZM101.959 30.429a.37.37 0 0 0-.321.412l.648 5.182a.37.37 0 1 0 .734-.091l-.648-5.182a.37.37 0 0 0-.413-.321ZM100.478 30.645a.37.37 0 0 0-.354.385l.216 5.176a.369.369 0 1 0 .738-.03l-.215-5.177a.37.37 0 0 0-.385-.354ZM160.822 101.304a.368.368 0 0 0 .485-.194l1.942-4.531a.369.369 0 1 0-.679-.291l-1.942 4.531a.368.368 0 0 0 .194.485ZM159.106 101.034a.369.369 0 0 0 .47-.228l1.703-4.888a.37.37 0 0 0-.698-.243l-1.703 4.888a.37.37 0 0 0 .228.471ZM157.633 100.768a.37.37 0 0 0 .457-.254l1.359-4.739a.37.37 0 1 0-.711-.203l-1.358 4.738a.37.37 0 0 0 .253.458Z" fill="#1C1C1C"></path><path d="M104.388 29.967c.04-.473.269-1.638.857-2.51.588-.874.572-4.221.491-5.786-.123-.255-.442-.611-.736 0-.367.764-.367 3.493-1.225 3.711-.122-1.928-.294-6.178 0-7.75-.082-.29-.343-.72-.735-.109-.414.646-.828 3.08-.946 4.414.086-1.559.211-3.922.211-4.304 0-.546-.613-.764-.858-.11-.245.655-.613 4.367-.613 5.021v-5.02c0-.655-.612-.546-.735 0-.122.545-.49 2.182-.49 5.02-.04-1.382-.122-4.3-.122-4.911 0-.764-.613-.546-.613-.11 0 .437-.245 1.965-.245 5.021 0 3.057.49 7.314.858 8.078.939.036 3.234-.044 4.901-.655Z" fill="#FFFFFF"></path><path fill-rule="evenodd" clip-rule="evenodd" d="M100.341 18.915c-.122.838-.239 2.04-.239 3.63a.493.493 0 0 1-.98.075c.004 1.491.123 3.266.288 4.77.083.763.177 1.451.273 1.992.057.325.111.577.158.754.98.005 2.723-.1 4.097-.536.098-.614.357-1.615.898-2.419.084-.125.181-.406.26-.861.075-.434.124-.962.153-1.522.04-.765.041-1.57.025-2.25l-.014.081c-.024.134-.049.288-.076.45-.04.243-.083.505-.129.745-.077.408-.177.837-.325 1.186-.135.32-.377.734-.834.85a.492.492 0 0 1-.613-.446 86.805 86.805 0 0 1-.157-4.033c-.015-1.007-.007-2.02.049-2.83-.082.297-.162.646-.236 1.017a24.747 24.747 0 0 0-.354 2.405l-.034.6a.492.492 0 0 1-.985-.028c0-.173.013-.394.035-.643.066-1.183.152-2.798.19-3.68a13.33 13.33 0 0 0-.056.345c-.068.441-.136.98-.197 1.522-.123 1.097-.211 2.16-.211 2.456a.493.493 0 0 1-.986 0v-3.63Zm-.528-1.938a.902.902 0 0 1 .66-.395.747.747 0 0 1 .725.394c.212-.259.519-.409.877-.33a.897.897 0 0 1 .618.511c.106-.145.234-.274.392-.354a.712.712 0 0 1 .673.003.925.925 0 0 1 .348.351c.068.116.114.238.144.343.02.073.023.15.009.224-.136.73-.169 2.135-.147 3.643.008.626.027 1.26.049 1.856l.045-.275c.027-.163.053-.326.083-.491.063-.355.141-.737.267-1 .092-.19.215-.372.393-.49a.723.723 0 0 1 .641-.087.915.915 0 0 1 .393.275c.085.1.151.208.197.303a.51.51 0 0 1 .048.188c.041.794.066 2.04.006 3.203-.03.58-.082 1.151-.167 1.64-.081.467-.203.931-.413 1.243-.523.777-.738 1.85-.775 2.277a.494.494 0 0 1-.322.42c-1.756.645-4.128.723-5.09.686a.493.493 0 0 1-.425-.28c-.126-.262-.235-.739-.33-1.282-.1-.568-.197-1.279-.282-2.057-.17-1.554-.294-3.401-.294-4.951 0-1.542.062-2.7.124-3.53.028-.374.056-.68.078-.921l.007-.076c.023-.263.036-.413.036-.494 0-.425.302-.847.755-.887a.72.72 0 0 1 .677.34Z" fill="#1C1C1C"></path><path fill-rule="evenodd" clip-rule="evenodd" d="M102.767 25.879a.37.37 0 0 0-.508-.127c-.185.111-.397.357-.593.716-.204.372-.41.9-.564 1.619a.37.37 0 0 0 .723.155c.142-.661.326-1.12.49-1.42.082-.15.158-.257.219-.33a.87.87 0 0 1 .076-.082c.018-.016.029-.023.03-.024a.37.37 0 0 0 .127-.507Z" fill="#1C1C1C"></path><path d="M127.735 31.738c-1.281 2.07 1.274 7.724 2.342 9.613 5.916-.986 10.106 9.12 12.571 9.86 1.972.591 3.779-.986 4.437-1.849 7.517-5.3 5.053-12.447 1.725-16.145 1.232-.74-.041-.862-.616-.616.296-1.775-.575-1.11-1.109-.37-4.684-3.697-6.656-.493-10.353-.986-3.697-.492-7.394-2.095-8.997.493Z" fill="#1C1C1C"></path><path fill-rule="evenodd" clip-rule="evenodd" d="M131.437 30.46c-1.572-.138-2.833.11-3.597 1.343-.299.484-.382 1.192-.307 2.034.075.838.305 1.789.609 2.738a28.206 28.206 0 0 0 2.001 4.641c1.485-.222 2.858.237 4.115 1.053 1.278.83 2.443 2.035 3.493 3.286a65.28 65.28 0 0 1 1.8 2.275c.358.468.699.912 1.021 1.313.415.517.8.963 1.156 1.302.358.342.676.564.955.648.945.283 1.855.05 2.617-.37a5.664 5.664 0 0 0 1.687-1.435l.011-.015.016-.012c3.728-2.628 4.968-5.702 4.877-8.568-.091-2.875-1.522-5.56-3.173-7.393l-.1-.111.129-.077c.15-.09.258-.168.332-.235a.451.451 0 0 0 .121-.148c.01-.024.005-.03.004-.03-.004-.008-.022-.026-.069-.044a1.07 1.07 0 0 0-.421-.042 1.5 1.5 0 0 0-.472.102l-.207.088.037-.222c.074-.44.071-.71.03-.858-.02-.072-.046-.102-.062-.115-.015-.01-.035-.018-.071-.012-.085.012-.211.087-.361.223a3.266 3.266 0 0 0-.423.485l-.076.104-.101-.08c-1.16-.916-2.146-1.4-3.027-1.622-.879-.221-1.662-.184-2.42-.048-.381.069-.754.162-1.132.26l-.201.053c-.312.082-.628.165-.95.237-.786.175-1.618.286-2.562.16-.845-.113-1.69-.283-2.506-.447l-.242-.05c-.893-.179-1.745-.343-2.531-.412Zm2.821.219c.817.164 1.654.333 2.491.444.904.121 1.705.016 2.475-.156.318-.07.628-.152.94-.234l.203-.053c.379-.099.76-.194 1.15-.264.782-.141 1.602-.181 2.525.051.896.226 1.881.707 3.02 1.59.118-.154.249-.301.38-.42.155-.141.328-.261.49-.285a.334.334 0 0 1 .256.059.446.446 0 0 1 .151.247c.047.171.051.421.007.763.113-.029.235-.047.352-.054.189-.012.385.002.527.058a.38.38 0 0 1 .188.142.27.27 0 0 1 .016.254.672.672 0 0 1-.186.24 2.02 2.02 0 0 1-.244.184c1.637 1.86 3.047 4.549 3.139 7.44.093 2.953-1.189 6.098-4.967 8.767a5.904 5.904 0 0 1-1.752 1.488c-.799.438-1.779.697-2.806.389-.337-.101-.689-.356-1.055-.705-.368-.351-.761-.808-1.178-1.327-.33-.41-.673-.858-1.032-1.326-.556-.725-1.149-1.499-1.786-2.258-1.045-1.244-2.191-2.427-3.439-3.238-1.246-.809-2.586-1.242-4.026-1.002l-.085.014-.042-.075c-.538-.95-1.447-2.844-2.062-4.761-.307-.96-.543-1.929-.62-2.792-.077-.859.001-1.633.343-2.185.839-1.355 2.227-1.6 3.828-1.46.801.07 1.667.237 2.557.416l.242.049Z" fill="#1C1C1C"></path><path d="M139.299 52.073a9.12 9.12 0 0 1-8.71-11.831c2.184-7.025 11.443-5.67 14.678-1.849l1.18 3.205c1.027-.124 3.464.341 3.328 3.204-.123 2.588-2.482 2.588-2.724 2.958a9.114 9.114 0 0 1-7.752 4.313Z" fill="#FFFFFF"></path><path fill-rule="evenodd" clip-rule="evenodd" d="m144.834 38.647 1.285 3.486.387-.046c.425-.05 1.171.024 1.776.409.566.36 1.06 1.021 1 2.282-.027.57-.174.967-.363 1.256-.191.29-.44.496-.71.653-.273.159-.555.261-.815.355l-.012.004c-.118.043-.248.09-.356.139-.089.041-.273.13-.387.305l-.004.005-.003.004a8.627 8.627 0 0 1-15.96-4.546c0-.894.136-1.755.387-2.565 1.014-3.26 3.649-4.586 6.485-4.645 2.835-.058 5.768 1.16 7.29 2.904Zm-7.31-3.89c-3.149.065-6.236 1.575-7.406 5.339a9.613 9.613 0 0 0 17.311 7.99l.009-.006c.065-.03.155-.062.29-.11l.01-.004c.254-.091.611-.22.967-.427a3.055 3.055 0 0 0 1.039-.965c.295-.451.488-1.023.523-1.749.076-1.601-.58-2.604-1.455-3.16-.672-.428-1.44-.575-2.028-.578l-1.085-2.946-.056-.066c-1.73-2.043-5.006-3.382-8.119-3.317Z" fill="#1C1C1C"></path><path fill-rule="evenodd" clip-rule="evenodd" d="M74.992 8.778a.3.3 0 0 1-.193.444l-4.88 1.107a.3.3 0 0 1-.325-.141L64.58 1.6a.3.3 0 0 1 .193-.444l4.88-1.107a.3.3 0 0 1 .325.141l5.014 8.588Z" fill="#FFCDCD"></path><path fill-rule="evenodd" clip-rule="evenodd" d="M114.155 101.939a.3.3 0 0 1-.47-.113l-1.938-4.613a.3.3 0 0 1 .083-.345l7.587-6.43a.3.3 0 0 1 .47.114l1.938 4.613c.05.12.017.26-.083.345l-7.587 6.429Z" fill="#FFE9CD"></path><path fill-rule="evenodd" clip-rule="evenodd" d="M140.295 166.908a.3.3 0 0 1 .322-.078l4.449 1.601a.3.3 0 0 1 .118.486l-7.351 7.938a.299.299 0 0 1-.321.078l-4.449-1.601a.3.3 0 0 1-.119-.486l7.351-7.938Z" fill="#D4FFD5"></path><rect x="183.155" y="39.053" width="5.845" height="14.576" rx="0.3" fill="#E5DBFF"></rect><path fill-rule="evenodd" clip-rule="evenodd" d="M57.91 134.847a.3.3 0 0 1 .193-.444l4.879-1.107a.3.3 0 0 1 .325.141l7.68 13.154a.3.3 0 0 1-.193.444l-4.879 1.107a.3.3 0 0 1-.325-.142l-7.68-13.153Z" fill="#D0FFE4"></path><rect y="86.425" width="5.845" height="10.932" rx="0.3" fill="#D1F3FF"></rect></svg>