<svg
            viewBox="0 0 117 184"
            fill="none"
            xmlns="http://www.w3.org/2000/svg"
            className="ImageWithTitle__image ImageWithTitle__mediumIcon"
          >
            <path
              d="m28.923 29.421 1.823.79-7.687 17.747-1.823-.79 7.687-17.747Z"
              fill="#FFFFFF"
            />
            <path
              fillRule="evenodd"
              clipRule="evenodd"
              d="M28.518 29.246a.441.441 0 0 1 .58-.23l1.823.79a.441.441 0 0 1 .23.58l-7.687 17.747a.441.441 0 0 1-.58.23l-1.823-.79a.441.441 0 0 1-.23-.58l7.687-17.747Zm.634.756-7.336 16.937 1.013.439 7.336-16.938-1.013-.438Z"
              fill="#E39D21"
            />
            <path
              d="M41.545 21.828a8.387 8.387 0 1 1-16.774 0 8.387 8.387 0 0 1 16.774 0Z"
              fill="#FFFFFF"
            />
            <path
              fillRule="evenodd"
              clipRule="evenodd"
              d="M33.158 13.883a7.946 7.946 0 1 0 0 15.891 7.946 7.946 0 0 0 0-15.891Zm-8.828 7.945a8.829 8.829 0 1 1 17.657 0 8.829 8.829 0 0 1-17.657 0Z"
              fill="#E39D21"
            />
            <path
              d="M39.78 21.828a6.621 6.621 0 1 1-13.243 0 6.621 6.621 0 0 1 13.242 0Z"
              fill="#FFFFFF"
            />
            <path
              fillRule="evenodd"
              clipRule="evenodd"
              d="M33.158 15.649a6.18 6.18 0 1 0 0 12.36 6.18 6.18 0 0 0 0-12.36Zm-7.063 6.18a7.063 7.063 0 1 1 14.126 0 7.063 7.063 0 0 1-14.125 0Z"
              fill="#E39D21"
            />
            <path
              fillRule="evenodd"
              clipRule="evenodd"
              d="M33.158 17.193a4.635 4.635 0 0 0-4.267 6.449.442.442 0 0 1-.812.346 5.518 5.518 0 0 1 7.358-7.186.441.441 0 1 1-.365.804 4.617 4.617 0 0 0-1.914-.413Zm-4.149 7.594a.442.442 0 0 1 .622.049 4.644 4.644 0 0 0 2.016 1.375.441.441 0 1 1-.288.835 5.524 5.524 0 0 1-2.399-1.637.442.442 0 0 1 .049-.622Z"
              fill="#E39D21"
            />
            <path
              d="M82.708 45.113c-9.05-.42-9.601-5.076-16.995-5.076-6.29 0-8.497 3.09-9.49 5.076-.994 1.987-6.622 12.14 10.152 19.202 16.774 7.063 24.83-1.765 27.81-6.4 2.98-4.635-1.987-12.36-11.477-12.802Z"
              fill="#1C1C1C"
            />
            <path
              fillRule="evenodd"
              clipRule="evenodd"
              d="M59.044 41.92c-1.441 1.007-2.23 2.259-2.723 3.243-.023.047-.05.097-.077.153-.57 1.125-2.032 4.018-1.499 7.478.558 3.619 3.308 7.897 11.673 11.42 8.364 3.521 14.54 3.076 18.992 1.186 4.455-1.892 7.198-5.238 8.682-7.545 1.456-2.265.98-5.302-1.056-7.844-2.034-2.54-5.617-4.568-10.333-4.787-4.55-.212-6.967-1.49-9.167-2.71l-.187-.104c-2.118-1.176-4.074-2.262-7.636-2.262-3.126 0-5.227.767-6.668 1.773Zm-.126-.18c1.484-1.036 3.63-1.813 6.795-1.813 3.62 0 5.618 1.11 7.74 2.289l.19.105c2.187 1.213 4.57 2.473 9.07 2.682 4.774.222 8.419 2.277 10.496 4.87 2.074 2.589 2.592 5.732 1.068 8.101-1.496 2.328-4.27 5.714-8.781 7.63-4.515 1.916-10.754 2.354-19.164-1.187-8.409-3.54-11.232-7.87-11.805-11.59-.544-3.532.948-6.48 1.519-7.608l.078-.155c.5-1.002 1.311-2.289 2.794-3.324Z"
              fill="#1C1C1C"
            />
            <ellipse cx="58.5" cy="170.5" rx="58.5" ry="13.5" fill="#FFF7E8" />
            <path
              d="M49.868 162.869c5.751-5.266 6.485-10 6.485-10l3.367-1.597s3.088 3.614 4.331 6.719c-5.238 2.483-7.303 3.925-13.379 6.574-1.203-.122-1.47-1.085-.804-1.696Z"
              fill="#1C1C1C"
            />
            <path
              fillRule="evenodd"
              clipRule="evenodd"
              d="m55.952 152.57 3.884-1.841.22.256-.336.287.336-.287v.001l.002.003.007.008.028.032.102.123c.088.107.216.262.372.458.312.392.742.947 1.21 1.6.934 1.3 2.042 3.014 2.684 4.617a.442.442 0 0 1-.22.563 142.645 142.645 0 0 0-5.316 2.673l-1.046.545a106.863 106.863 0 0 1-7.03 3.362l-.106.046-.115-.011c-.708-.072-1.254-.408-1.468-.939-.216-.535-.032-1.118.41-1.522 2.833-2.594 4.422-5.049 5.3-6.844.44-.898.704-1.632.856-2.137a8.133 8.133 0 0 0 .19-.755v-.007l.036-.231Zm.79.603-.001.006a9.362 9.362 0 0 1-.17.639 15.124 15.124 0 0 1-.907 2.27c-.926 1.889-2.58 4.434-5.498 7.107-.225.206-.24.411-.188.541.05.123.215.309.63.376a105.856 105.856 0 0 0 6.865-3.288l1.04-.542c1.48-.773 3.001-1.567 4.968-2.508-.617-1.394-1.576-2.873-2.42-4.049a38.822 38.822 0 0 0-1.462-1.907l-2.857 1.355Z"
              fill="#1C1C1C"
            />
            <path
              d="M20.826 167.575c7.779-.557 11.293-3.812 11.293-3.812l3.63.84s.177 4.751-.776 7.956c-5.648-1.306-8.162-1.459-14.57-3.154-.867-.843-.479-1.765.424-1.83Z"
              fill="#1C1C1C"
            />
            <path
              fillRule="evenodd"
              clipRule="evenodd"
              d="m31.99 163.28 4.188.968.013.338-.441.016.44-.016h.001v.015l.002.042a27.83 27.83 0 0 1 .01.75c.002.502-.005 1.203-.043 2.006-.076 1.598-.272 3.63-.764 5.285a.44.44 0 0 1-.523.304 144.147 144.147 0 0 0-5.826-1.205l-1.158-.222a107.202 107.202 0 0 1-7.598-1.73l-.112-.03-.083-.08c-.51-.496-.73-1.099-.568-1.648.163-.554.669-.895 1.267-.938 3.83-.274 6.6-1.212 8.404-2.073a14.308 14.308 0 0 0 1.997-1.144 8.974 8.974 0 0 0 .592-.452l.026-.022.005-.005.172-.159Zm.246.963-.005.004c-.12.097-.296.232-.53.396-.47.326-1.173.763-2.121 1.216-1.898.906-4.775 1.874-8.722 2.156-.305.022-.444.173-.483.308-.038.128-.024.376.26.686a106.28 106.28 0 0 0 7.422 1.685c.385.075.767.148 1.151.221 1.64.313 3.327.636 5.452 1.119.382-1.476.55-3.23.618-4.676a39.113 39.113 0 0 0 .039-2.403l-3.081-.712Z"
              fill="#1C1C1C"
            />
            <path
              d="M57.657 50.41a8.277 8.277 0 0 0 15.764 3.532c.668.294 2.113.441 2.555-1.325.441-1.765-.993-2.207-1.766-2.207a8.277 8.277 0 1 0-16.553 0Z"
              fill="#FFFFFF"
            />
            <path
              fillRule="evenodd"
              clipRule="evenodd"
              d="M65.934 42.575a7.835 7.835 0 1 0 7.088 11.178l.184-.389.393.174c.27.119.689.2 1.06.09.331-.097.701-.367.889-1.117.095-.383.081-.66.023-.86a.916.916 0 0 0-.304-.459c-.294-.243-.731-.34-1.057-.34h-.441v-.442a7.835 7.835 0 0 0-7.835-7.835Zm-8.718 7.835a8.718 8.718 0 0 1 17.426-.406c.386.06.827.21 1.188.508.26.216.477.51.589.892.11.38.11.82-.015 1.32-.254 1.015-.827 1.555-1.496 1.752a2.42 2.42 0 0 1-1.264.006 8.718 8.718 0 0 1-16.429-4.072Z"
              fill="#1C1C1C"
            />
            <path
              d="M65.713 41.251a8.277 8.277 0 0 0-8.277 8.277c1.435-1.619 6.754-3.885 16.554 0a8.277 8.277 0 0 0-8.277-8.277Z"
              fill="#1C1C1C"
            />
            <path
              fillRule="evenodd"
              clipRule="evenodd"
              d="M57.943 48.515c2.248-1.536 7.363-2.74 15.578.358a7.836 7.836 0 0 0-15.578-.358Zm-.948 1.013a8.718 8.718 0 0 1 17.436 0v.65l-.604-.24c-9.722-3.854-14.805-1.534-16.06-.117l-.772.87v-1.163Z"
              fill="#1C1C1C"
            />
            <path
              d="m56.222 58.356 16.333.552c3.213-.26 8.081 2.82 12.48 6.4 4.938 4.02 9.285 8.671 10.032 9.932 1.766 2.98-.882 23.064 0 27.148.707 3.266 3.164 4.009 4.304 3.972-2.942 1.693-9.16 3.907-10.483-.772-1.656-5.849 0-4.745 0-8.166 0-3.421.33-14.347-.883-16.554-.971-1.765-6.084-5.223-8.63-7.283l1.677 16.222H45.96l5.442-18.981c-2.154.737-4.569 1.575-6.987 2.287-5.549 1.634-11.114 2.6-13.573.14-3.708-3.707-3.2-19.79-2.76-27.809-1.581-.846-4.06-3.023-3.09-5.849.972-2.825 3.422-3.31 4.746-3.09-1.471-.33-4.282-2.096-4.193-4.303 2.869 1.214 5.253 1.832 7.283 1.655 2.538-.22 3.09 6.732 1.545 11.035-.753 2.097 1.766 16.995 2.428 20.416.217 1.125 3.194-.17 6.842-1.933 4.461-2.158 9.928-5.02 12.58-5.02Z"
              fill="#FFFFFF"
            />
            <path
              fillRule="evenodd"
              clipRule="evenodd"
              d="M25.307 31.829a.441.441 0 0 1 .409-.034c2.85 1.206 5.152 1.79 7.073 1.622.884-.077 1.529.491 1.953 1.25.425.76.693 1.809.827 2.96.27 2.307.017 5.19-.782 7.415-.065.182-.11.574-.112 1.191-.002.597.036 1.35.106 2.218.14 1.732.403 3.888.712 6.092.617 4.407 1.41 8.979 1.74 10.681a.09.09 0 0 0 .006.021l.003.002c.016.01.076.037.217.04.287.008.733-.083 1.338-.282 1.195-.392 2.825-1.144 4.653-2.028.552-.267 1.122-.546 1.701-.83 1.748-.855 3.58-1.752 5.283-2.495 1.135-.496 2.222-.928 3.198-1.236.97-.307 1.86-.502 2.59-.502h.015l16.308.552c1.737-.132 3.843.627 6.017 1.815 2.201 1.202 4.541 2.886 6.751 4.685a84.599 84.599 0 0 1 6.624 6.033 55.996 55.996 0 0 1 2.275 2.433c.59.676 1.026 1.23 1.235 1.583.272.46.43 1.183.53 2.029.1.865.146 1.928.152 3.118.014 2.381-.124 5.311-.29 8.263-.045.806-.092 1.615-.139 2.414-.124 2.132-.246 4.203-.316 6.02-.097 2.52-.092 4.48.115 5.435.653 3.02 2.888 3.657 3.858 3.625a.442.442 0 0 1 .234.824c-1.5.863-3.854 1.872-6.03 2.06-1.092.094-2.178-.014-3.094-.491-.932-.485-1.643-1.327-2.004-2.604-.834-2.944-.86-4.22-.626-5.214.07-.297.152-.544.233-.787.191-.574.376-1.13.376-2.285 0-.51.007-1.181.016-1.962.02-1.86.047-4.344-.002-6.761-.034-1.713-.106-3.38-.244-4.75a17.8 17.8 0 0 0-.257-1.786c-.105-.505-.222-.865-.341-1.082-.205-.373-.66-.88-1.313-1.481-.642-.593-1.44-1.246-2.296-1.915a162.488 162.488 0 0 0-2.368-1.804c-.607-.457-1.193-.898-1.719-1.304l1.57 15.185a.442.442 0 0 1-.44.487H45.96a.442.442 0 0 1-.424-.563l5.209-18.168c-1.943.665-4.073 1.39-6.205 2.019-2.784.82-5.601 1.48-8.044 1.622-2.425.14-4.598-.224-5.966-1.593-1.024-1.023-1.708-2.835-2.177-5-.474-2.188-.746-4.823-.888-7.578-.276-5.386-.054-11.282.162-15.293-.791-.464-1.735-1.21-2.41-2.181-.753-1.087-1.184-2.483-.642-4.062.68-1.976 2.034-2.91 3.307-3.26a7.78 7.78 0 0 1-1.115-.801c-.916-.795-1.715-1.906-1.663-3.207a.442.442 0 0 1 .204-.355Zm3.895 5.071c-1.219-.021-3.016.579-3.793 2.839-.428 1.247-.105 2.352.533 3.271.646.931 1.6 1.645 2.348 2.045a.442.442 0 0 1 .233.414c-.22 4.005-.457 10.012-.177 15.474.14 2.732.409 5.314.869 7.436.464 2.143 1.107 3.732 1.938 4.563 1.09 1.09 2.93 1.472 5.29 1.336 2.177-.126 4.698-.687 7.264-1.42-.74-1.264-.986-2.988-1.009-4.623a22.71 22.71 0 0 1 .34-4.08c-1.512.72-2.892 1.336-3.966 1.69-.622.204-1.189.336-1.635.325a1.3 1.3 0 0 1-.665-.176.893.893 0 0 1-.405-.602c-.333-1.718-1.13-6.305-1.749-10.727-.31-2.21-.576-4.386-.717-6.143-.07-.879-.111-1.66-.11-2.292.003-.612.043-1.145.166-1.487.746-2.08.99-4.824.735-7.014-.128-1.097-.377-2.015-.72-2.63-.346-.617-.721-.836-1.107-.802-1.967.17-4.208-.367-6.8-1.403.183.661.655 1.288 1.28 1.83.828.717 1.834 1.204 2.49 1.351a.44.44 0 0 1 .333.528c-.18.792-.396 2.052-.46 3.247-.03.599-.023 1.167.042 1.647.067.492.187.835.337 1.03a.441.441 0 1 1-.7.538c-.291-.379-.438-.907-.512-1.45-.075-.554-.08-1.182-.048-1.81.054-1.032.215-2.098.375-2.905ZM44.027 63.68a21.809 21.809 0 0 0-.446 4.544c.024 1.709.303 3.325 1.006 4.379 2.097-.627 4.186-1.342 6.102-1.999l.352-.12 1.74-6.069a.441.441 0 1 1 .848.243l-7.084 24.709h34.018l-1.606-15.543-5.453-4.078a.442.442 0 0 1 .53-.707l5.335 3.99c2.204-1.754 3.342-3.24 4.008-4.492.491-.924.723-1.702.941-2.432.066-.219.13-.433.2-.647-2.116-1.706-4.321-3.277-6.38-4.402-2.152-1.176-4.076-1.826-5.547-1.707a.45.45 0 0 1-.051 0l-16.325-.55c-.594 0-1.38.163-2.317.46-.934.295-1.99.713-3.11 1.203-1.683.735-3.49 1.62-5.234 2.473l-1.527.745Zm41.228 2.382-.062.208c-.227.757-.502 1.676-1.037 2.681-.714 1.343-1.896 2.876-4.07 4.636.608.478 1.315 1.01 2.061 1.57.782.589 1.607 1.209 2.405 1.833.862.674 1.683 1.345 2.352 1.962.658.607 1.207 1.195 1.487 1.705.184.334.323.798.432 1.327.112.538.2 1.175.271 1.878.141 1.405.214 3.098.249 4.82.048 2.431.021 4.947.001 6.811-.008.773-.015 1.433-.015 1.93 0 1.308-.246 2.049-.447 2.655-.072.217-.138.416-.186.618-.18.771-.206 1.868.616 4.773.301 1.063.864 1.698 1.562 2.061.714.371 1.614.481 2.61.395 1.523-.132 3.178-.711 4.518-1.346-1.303-.438-2.823-1.588-3.366-4.097-.235-1.087-.23-3.169-.134-5.656.07-1.826.193-3.91.317-6.047.047-.797.094-1.602.139-2.403.165-2.952.302-5.857.289-8.208-.007-1.175-.052-2.202-.147-3.021-.098-.839-.243-1.395-.412-1.68-.164-.278-.552-.778-1.142-1.454a55.009 55.009 0 0 0-2.237-2.393 84.269 84.269 0 0 0-6.054-5.558Z"
              fill="#1C1C1C"
            />
            <path
              d="M45.96 89.807h35.092l-1.676-16.222c4.835-3.752 4.987-6.4 5.659-8.277-4.399-3.58-9.267-6.66-12.48-6.4l-3.09-.105c-.662 1.065-2.538 3.15-4.745 2.974-2.207-.177-3.642-2.255-4.083-3.272l-4.415-.149c-2.652 0-8.118 2.861-12.58 5.019-.515 2.28-1.082 7.418.772 9.738 2.419-.712 4.834-1.55 6.987-2.287L45.96 89.807Z"
              fill="#FB3"
            />
            <path
              fillRule="evenodd"
              clipRule="evenodd"
              d="M44.027 63.679a21.828 21.828 0 0 0-.446 4.544c.024 1.709.303 3.325 1.006 4.379 2.097-.627 4.186-1.342 6.102-1.999l.352-.12 1.74-6.069a.442.442 0 0 1 .848.243l-7.084 24.709h34.018l-1.606-15.543-5.453-4.078a.442.442 0 0 1 .53-.707l5.335 3.99c2.204-1.754 3.342-3.24 4.007-4.492.492-.924.724-1.702.942-2.431.066-.22.13-.434.2-.648-2.117-1.706-4.321-3.277-6.38-4.402-2.152-1.176-4.076-1.826-5.548-1.707a.405.405 0 0 1-.05 0l-2.842-.095a8.363 8.363 0 0 1-1.758 1.853c-.874.668-2.001 1.211-3.255 1.111-1.238-.099-2.24-.73-2.976-1.444a7.103 7.103 0 0 1-1.357-1.836l-4.137-.14c-.594.002-1.38.164-2.317.46-.934.296-1.99.714-3.11 1.204-1.684.735-3.49 1.62-5.234 2.473l-1.527.745ZM79.84 73.782l1.651 15.98a.442.442 0 0 1-.439.487H45.96a.442.442 0 0 1-.424-.563l5.209-18.168c-1.943.665-4.073 1.391-6.205 2.019a.442.442 0 0 1-.47-.148c-1.024-1.282-1.345-3.277-1.37-5.154-.027-1.9.248-3.79.512-4.957a.442.442 0 0 1 .239-.3c.552-.268 1.122-.547 1.701-.83 1.748-.856 3.58-1.753 5.283-2.496 1.135-.496 2.222-.928 3.198-1.236.97-.307 1.86-.501 2.59-.501h.015l4.414.149c.17.006.322.109.39.265.2.461.638 1.185 1.282 1.81.643.624 1.463 1.12 2.432 1.198.953.076 1.867-.335 2.649-.932a7.37 7.37 0 0 0 1.686-1.835.44.44 0 0 1 .39-.208l3.065.104c1.737-.132 3.844.627 6.017 1.815 2.2 1.202 4.54 2.886 6.751 4.685.145.118.2.315.137.491-.087.242-.168.515-.257.812-.227.757-.502 1.676-1.037 2.681-.74 1.393-1.984 2.99-4.316 4.832Z"
              fill="#1C1C1C"
            />
            <path
              d="M22.24 41.758c.983.815 4.666 2.79 5.14 2.168 1.064-1.398-2.629-3.351-4.043-3.765-.344-.101-.822.01-1.037.322-.214.311-.363 1.024-.06 1.275Z"
              fill="#FFFFFF"
            />
            <path
              fillRule="evenodd"
              clipRule="evenodd"
              d="M28.01 43.376c.003.291-.09.57-.28.818-.182.24-.464.287-.656.292a2.502 2.502 0 0 1-.67-.094c-.466-.12-1.03-.348-1.591-.611-1.117-.525-2.322-1.241-2.855-1.683-.333-.276-.35-.723-.321-1a1.97 1.97 0 0 1 .299-.865c.18-.262.452-.416.712-.49.261-.075.553-.082.814-.006.757.222 2.08.838 3.088 1.583.501.37.966.803 1.23 1.27.134.237.228.503.23.786Zm-1.985-1.346c-.925-.685-2.156-1.253-2.812-1.446a.61.61 0 0 0-.322.007.41.41 0 0 0-.227.142 1.112 1.112 0 0 0-.15.456.644.644 0 0 0 .007.206.163.163 0 0 0 .01.03c.456.376 1.576 1.049 2.657 1.556.542.255 1.049.456 1.437.556a1.671 1.671 0 0 0 .44.066.404.404 0 0 0 .063-.218.764.764 0 0 0-.116-.36c-.174-.307-.52-.65-.987-.995Z"
              fill="#1C1C1C"
            />
            <path
              d="M22.52 39.59c1.103.893 5.176 3.121 5.655 2.503 1.077-1.39-3.006-3.597-4.552-4.097-.377-.122-.887-.032-1.102.28-.216.31-.34 1.04 0 1.314Z"
              fill="#FFFFFF"
            />
            <path
              fillRule="evenodd"
              clipRule="evenodd"
              d="M28.793 41.512c.018.303-.07.594-.269.852-.195.252-.504.281-.694.277a2.862 2.862 0 0 1-.709-.129c-.501-.146-1.116-.407-1.732-.707-1.23-.598-2.557-1.395-3.146-1.872-.338-.274-.389-.712-.37-1.013.018-.318.122-.66.285-.896.189-.273.483-.419.755-.481.275-.063.578-.054.846.033.819.265 2.268.963 3.384 1.778.555.405 1.067.867 1.367 1.35.152.244.265.517.283.808Zm-2.17-1.445c-1.043-.76-2.408-1.416-3.136-1.651a.741.741 0 0 0-.377-.013c-.13.03-.2.085-.226.123a.988.988 0 0 0-.13.447c-.013.21.044.274.044.274.514.416 1.774 1.179 2.977 1.764.6.292 1.162.528 1.593.653a2.034 2.034 0 0 0 .5.094.344.344 0 0 0 .044-.193.873.873 0 0 0-.15-.395c-.211-.338-.615-.72-1.14-1.103Z"
              fill="#1C1C1C"
            />
            <path
              d="M22.962 37.383c1.103.893 5.176 3.121 5.655 2.503 1.077-1.39-3.006-3.597-4.552-4.097-.377-.122-.888-.032-1.103.28-.215.31-.338 1.04 0 1.314Z"
              fill="#FFFFFF"
            />
            <path
              fillRule="evenodd"
              clipRule="evenodd"
              d="M29.234 39.305c.018.303-.07.594-.269.851-.195.253-.503.282-.693.278a2.862 2.862 0 0 1-.71-.129c-.501-.146-1.116-.407-1.732-.707-1.229-.598-2.557-1.395-3.146-1.872-.338-.274-.388-.712-.37-1.013.019-.318.122-.66.285-.896.19-.273.483-.419.755-.481.275-.063.578-.054.847.033.818.265 2.267.963 3.383 1.778.555.405 1.067.867 1.368 1.35.152.244.265.517.282.808Zm-2.17-1.445c-1.042-.76-2.408-1.416-3.135-1.651a.742.742 0 0 0-.377-.013c-.131.03-.2.085-.227.123a.988.988 0 0 0-.13.447c-.012.21.045.274.045.274.514.416 1.774 1.179 2.976 1.764.6.292 1.162.528 1.594.653a2.028 2.028 0 0 0 .5.094.344.344 0 0 0 .043-.193c-.006-.098-.047-.229-.15-.395-.211-.338-.614-.72-1.139-1.103Z"
              fill="#1C1C1C"
            />
            <path
              d="M23.624 35.397c1.103.892 5.176 3.121 5.655 2.503 1.077-1.39-3.006-3.597-4.552-4.098-.377-.122-.887-.031-1.103.28-.215.311-.338 1.04 0 1.315Z"
              fill="#FFFFFF"
            />
            <path
              fillRule="evenodd"
              clipRule="evenodd"
              d="M29.896 37.319c.018.302-.07.594-.268.851-.196.253-.504.282-.694.277a2.857 2.857 0 0 1-.71-.128c-.5-.147-1.115-.408-1.732-.708-1.229-.597-2.556-1.395-3.146-1.872-.338-.274-.388-.712-.37-1.013.02-.317.122-.66.285-.895.19-.273.483-.42.755-.482.275-.063.579-.053.847.034.818.264 2.268.963 3.384 1.778.555.405 1.067.867 1.367 1.35.152.243.265.517.282.808Zm-2.17-1.445c-1.042-.761-2.408-1.416-3.135-1.652a.741.741 0 0 0-.377-.012c-.131.03-.2.085-.227.123a.987.987 0 0 0-.13.447c-.012.21.045.273.045.273.514.416 1.774 1.18 2.976 1.765.6.291 1.163.527 1.594.653a2.028 2.028 0 0 0 .5.094.345.345 0 0 0 .043-.194.875.875 0 0 0-.15-.394c-.21-.338-.614-.72-1.139-1.103Z"
              fill="#1C1C1C"
            />
            <path
              d="M48.939 89.918h20.967s-23.064 21.739-32.555 27.147c9.16 8.497 23.396 33.327 23.396 33.327l-5.696 2.428s-19.024-19.754-31.935-38.514C33.93 100.07 48.939 89.918 48.939 89.918Z"
              fill="#FFFFFF"
            />
            <path
              fillRule="evenodd"
              clipRule="evenodd"
              d="M48.691 89.552a.443.443 0 0 1 .248-.076h20.967a.441.441 0 0 1 .303.763l-.303-.322.303.322-.067.063-.195.183-.75.7a558.952 558.952 0 0 1-11.718 10.61c-6.702 5.891-14.55 12.449-19.397 15.354 4.556 4.399 10.217 12.485 14.773 19.526a338.525 338.525 0 0 1 7.643 12.411l.469.804.121.21.041.071v.001l-.382.22.383-.219a.441.441 0 0 1-.21.625l-5.696 2.428a.441.441 0 0 1-.49-.1l.317-.306-.318.306v-.001l-.055-.057-.163-.17a321.936 321.936 0 0 1-2.962-3.158 427.857 427.857 0 0 1-7.96-8.851c-6.375-7.289-14.371-16.932-20.841-26.333a.441.441 0 0 1 .012-.517c5.434-7.153 11.916-13.273 17.034-17.603a132.898 132.898 0 0 1 6.363-5.064 95.988 95.988 0 0 1 2.356-1.7l.13-.09.033-.022.008-.006.003-.002.248.365-.248-.365Zm.384.807-.056.039c-.111.077-.277.192-.491.344a94.6 94.6 0 0 0-1.84 1.338 132.202 132.202 0 0 0-6.32 5.03c-5.03 4.255-11.366 10.235-16.707 17.209 6.41 9.277 14.29 18.779 20.597 25.988a425.551 425.551 0 0 0 7.943 8.834 307.225 307.225 0 0 0 2.958 3.153l4.956-2.112a299.19 299.19 0 0 0-2.114-3.575 336.377 336.377 0 0 0-5.888-9.452c-4.707-7.275-10.528-15.561-15.062-19.767a.44.44 0 0 1 .082-.707c4.699-2.677 12.802-9.43 19.764-15.549a560.147 560.147 0 0 0 11.699-10.593l.193-.18H49.075Z"
              fill="#1C1C1C"
            />
            <path
              d="M62.146 90.028h18.319c-4.268 14.787-11.883 21.519-21.594 35.313-4.194 14.898-21.409 39.177-21.409 39.177l-6.437-1.545s9.885-24.866 16.664-40.611c5.47-12.704 14.457-32.334 14.457-32.334Z"
              fill="#FFFFFF"
            />
            <path
              fillRule="evenodd"
              clipRule="evenodd"
              d="M61.744 89.844a.442.442 0 0 1 .402-.258h18.319a.441.441 0 0 1 .424.564c-3.19 11.055-8.262 17.674-14.618 25.971-2.188 2.856-4.528 5.91-6.996 9.413-2.129 7.504-7.492 17.306-12.304 25.212a279.28 279.28 0 0 1-8.398 12.95c-.24.348-.427.616-.555.799l-.146.207-.05.07v.001l-.36-.255.36.255a.442.442 0 0 1-.463.174l-6.436-1.545a.441.441 0 0 1-.308-.592l.41.163-.41-.164v-.001l.113-.282.325-.816a2652.7 2652.7 0 0 1 5.353-13.304c3.319-8.185 7.486-18.342 10.878-26.219 2.736-6.355 6.352-14.442 9.282-20.938a2801.086 2801.086 0 0 1 4.781-10.536l.295-.645.102-.223.402.183-.402-.184Zm.685.625-.279.61-1.092 2.397c-.928 2.039-2.222 4.89-3.687 8.136-2.93 6.495-6.543 14.576-9.276 20.925-3.388 7.868-7.553 18.017-10.87 26.201-1.66 4.091-3.107 7.691-4.14 10.268l-1.212 3.031-.249.625 5.65 1.356.021-.03a239.98 239.98 0 0 0 2.556-3.742c1.677-2.505 3.956-6 6.366-9.959 4.828-7.932 10.15-17.68 12.23-25.065a.443.443 0 0 1 .063-.135c2.532-3.596 4.913-6.705 7.126-9.593 6.21-8.108 11.091-14.481 14.24-25.025H62.428Z"
              fill="#1C1C1C"
            />
            <path
              fillRule="evenodd"
              clipRule="evenodd"
              d="M75.241 92.822c.164.081.23.28.148.444-2.144 4.288-11.31 18.89-19.436 29.493l-18.856 38.043a.331.331 0 1 1-.594-.294l18.871-38.072c.01-.02.02-.038.034-.055 8.114-10.584 17.268-25.169 19.389-29.411a.331.331 0 0 1 .444-.148Z"
              fill="#FB3"
            />
            <path
              d="m15.5 6.5 4 5M51.5 6.5l-4 5M34.5.5v6"
              stroke="#FFE6B5"
              strokeLinecap="round"
            />
          </svg>